<?xml version="1.0" encoding="UTF-8" ?>
<!DOCTYPE svg PUBLIC "-//W3C//DTD SVG 1.1//EN" "http://www.w3.org/Graphics/SVG/1.1/DTD/svg11.dtd">
<svg width="563pt" height="142pt" viewBox="0 0 563 142" version="1.1" xmlns="http://www.w3.org/2000/svg">
<g id="#75cfd7ff">
<path fill="#75cfd7" opacity="1.00" d=" M 18.25 24.27 C 29.43 11.76 45.24 3.58 61.89 1.56 C 66.21 1.22 70.53 0.90 74.86 0.64 C 150.54 5.02 226.24 9.55 301.94 13.70 C 368.28 16.90 434.65 19.92 501.00 23.01 C 510.90 23.50 521.06 23.49 530.57 26.63 C 548.77 32.62 562.05 50.39 563.00 69.48 L 563.00 74.51 C 562.11 90.58 552.75 105.89 538.65 113.73 C 529.73 119.05 519.17 120.39 508.95 120.06 C 371.96 126.84 234.96 133.67 97.96 140.46 C 90.49 140.91 82.99 140.98 75.56 142.00 L 68.77 142.00 C 50.66 141.52 32.82 133.88 20.21 120.83 C 8.03 108.61 0.81 91.76 0.00 74.55 L 0.00 68.49 C 0.76 52.22 7.23 36.29 18.25 24.27 M 64.54 10.86 C 45.58 12.53 27.88 23.82 18.18 40.16 C 10.99 52.00 8.16 66.36 10.10 80.06 C 12.05 94.47 19.54 107.95 30.48 117.49 C 42.76 128.43 59.61 133.51 75.91 132.44 C 173.28 127.88 270.62 123.09 367.98 118.47 C 381.56 118.66 395.61 114.03 405.15 104.08 C 415.18 93.97 420.16 79.11 418.01 65.01 C 415.99 49.43 405.34 35.35 390.95 29.07 C 381.28 24.59 370.45 24.46 360.00 24.27 C 351.56 23.34 343.05 23.71 334.60 22.91 C 252.40 19.09 170.21 14.94 88.01 11.10 C 80.20 10.66 72.33 9.71 64.54 10.86 Z" />
</g>
<g id="#194a6aff">
<path fill="#194a6a" opacity="1.00" d=" M 64.54 10.86 C 72.33 9.71 80.20 10.66 88.01 11.10 C 170.21 14.94 252.40 19.09 334.60 22.91 C 343.05 23.71 351.56 23.34 360.00 24.27 C 370.45 24.46 381.28 24.59 390.95 29.07 C 405.34 35.35 415.99 49.43 418.01 65.01 C 420.16 79.11 415.18 93.97 405.15 104.08 C 395.61 114.03 381.56 118.66 367.98 118.47 C 270.62 123.09 173.28 127.88 75.91 132.44 C 59.61 133.51 42.76 128.43 30.48 117.49 C 19.54 107.95 12.05 94.47 10.10 80.06 C 8.16 66.36 10.99 52.00 18.18 40.16 C 27.88 23.82 45.58 12.53 64.54 10.86 Z" />
</g>
</svg>
