<?xml version="1.0" encoding="UTF-8" ?>
<!DOCTYPE svg PUBLIC "-//W3C//DTD SVG 1.1//EN" "http://www.w3.org/Graphics/SVG/1.1/DTD/svg11.dtd">
<svg width="563pt" height="142pt" viewBox="0 0 563 142" version="1.1" xmlns="http://www.w3.org/2000/svg">
<g id="#75cfd7ff">
<path fill="#75cfd7" opacity="1.00" d=" M 482.72 0.98 C 488.17 0.21 493.64 1.13 499.09 1.38 C 516.72 2.90 533.57 11.52 545.24 24.80 C 555.97 36.78 562.26 52.50 563.00 68.55 L 563.00 74.42 C 562.23 91.43 555.21 108.11 543.30 120.31 C 530.65 133.67 512.58 141.52 494.23 142.00 L 487.12 142.00 C 471.49 140.28 455.73 140.25 440.04 139.20 C 311.38 132.87 182.73 126.41 54.07 120.06 C 45.34 120.21 36.36 119.58 28.36 115.77 C 12.16 108.69 0.90 92.10 0.00 74.48 L 0.00 69.60 C 0.66 59.75 4.12 50.08 10.31 42.35 C 18.63 31.60 31.69 24.92 45.23 24.05 C 61.14 22.72 77.13 22.48 93.08 21.57 C 153.39 18.75 213.71 16.07 274.00 13.02 C 343.58 9.12 413.15 4.96 482.72 0.98 M 453.64 12.17 C 371.40 15.96 289.18 20.10 206.94 23.93 C 197.99 24.86 188.84 23.91 180.08 26.35 C 162.32 30.38 147.92 45.86 145.16 63.85 C 142.92 76.66 146.47 90.32 154.64 100.44 C 162.63 110.80 175.19 116.82 188.05 118.17 C 284.73 122.68 381.40 127.51 478.08 132.01 C 487.66 132.63 497.44 133.13 506.85 130.76 C 525.04 126.53 540.68 113.31 548.25 96.29 C 554.14 83.10 555.11 67.78 550.92 53.96 C 546.10 37.60 533.98 23.60 518.55 16.38 C 506.94 10.81 493.72 9.57 481.03 10.70 C 471.92 11.57 462.75 11.34 453.64 12.17 Z" />
</g>
<g id="#194a6aff">
<path fill="#194a6a" opacity="1.00" d=" M 453.64 12.17 C 462.75 11.34 471.92 11.57 481.03 10.70 C 493.72 9.57 506.94 10.81 518.55 16.38 C 533.98 23.60 546.10 37.60 550.92 53.96 C 555.11 67.78 554.14 83.10 548.25 96.29 C 540.68 113.31 525.04 126.53 506.85 130.76 C 497.44 133.13 487.66 132.63 478.08 132.01 C 381.40 127.51 284.73 122.68 188.05 118.17 C 175.19 116.82 162.63 110.80 154.64 100.44 C 146.47 90.32 142.92 76.66 145.16 63.85 C 147.92 45.86 162.32 30.38 180.08 26.35 C 188.84 23.91 197.99 24.86 206.94 23.93 C 289.18 20.10 371.40 15.96 453.64 12.17 Z" />
</g>
</svg>
