<svg height="512pt" viewBox="0 0 512 512" width="512pt" xmlns="http://www.w3.org/2000/svg"><path d="m512 256c0 33.5625-6.457031 65.621094-18.203125 94.980469-1.878906 4.722656-3.90625 9.375-6.058594 13.949219-40.929687 86.914062-129.308593 147.070312-231.738281 147.070312-68.167969 0-130.121094-26.644531-175.992188-70.101562-23.0625-21.816407-42.058593-47.898438-55.746093-76.96875-2.152344-4.574219-4.179688-9.234376-6.058594-13.957032-11.746094-29.363281-18.203125-61.421875-18.203125-94.972656 0-141.386719 114.613281-256 256-256s256 114.613281 256 256zm0 0" fill="#3d3d3d"/><path d="m493.796875 350.980469c-1.878906 4.722656-3.90625 9.375-6.058594 13.949219-19.164062 40.699218-48.734375 75.535156-85.285156 101.0625-15.203125 10.628906-31.609375 19.644531-48.984375 26.800781-30.042969 12.382812-62.957031 19.207031-97.46875 19.207031-34.660156 0-67.710938-6.886719-97.855469-19.371094-17.019531-7.042968-33.121093-15.882812-48.066406-26.257812-10.636719-7.398438-20.6875-15.582032-30.070313-24.472656-23.0625-21.816407-42.058593-47.898438-55.746093-76.96875-2.152344-4.574219-4.179688-9.234376-6.058594-13.957032 12.453125-18.484375 26.976563-32.519531 29.675781-60.574218h416.234375c.300781 3.144531.75 6.113281 1.335938 8.921874.355469 1.734376.761719 3.417969 1.222656 5.046876 5.339844 19.320312 16.929687 31.472656 27.125 46.613281zm0 0" fill="#fbcd58"/><path d="m459.179688 210.964844c0-43.121094-138.839844-155.460938-203.179688-155.460938s-203.179688 112.339844-203.179688 155.460938" fill="#e6e6e6"/><path d="m256 55.503906c-31.273438 0-98.773438 112.339844-98.773438 155.460938h-104.40625c0-43.121094 138.84375-155.460938 203.179688-155.460938zm0 0" fill="#ccc"/><path d="m466.722656 304.609375c-83.058594 0-347.707031-13.574219-386.714844 137.289063-23.0625-21.816407-42.058593-47.898438-55.746093-76.96875-2.152344-4.574219-4.179688-9.234376-6.058594-13.957032 12.453125-18.484375 26.976563-32.519531 29.675781-60.574218h415.429688l2.140625 8.921874 1.222656 5.046876zm0 0" fill="#f98c3c"/><path d="m484.277344 273.941406c-2.253906 11.972656-12.496094 20.773438-24.65625 21.429688-102.933594 5.613281-205.867188 6.9375-308.800782 3.992187-32.277343-.917969-64.554687-2.265625-96.820312-4.035156-10.53125-.574219-19.832031-7.332031-23.382812-17.269531-5.9375-16.65625-5.90625-34.847656-1.496094-48.914063 3.269531-10.394531 12.8125-17.574219 23.699218-18.179687 32.234376-1.765625 64.46875-3.125 96.703126-4.054688 103.300781-3 206.589843-1.683594 309.875 3.941406 12.238281.65625 22.402343 9.582032 24.703124 21.617188 2.445313 12.800781 2.621094 28.578125.175782 41.472656zm0 0" fill="#f98c3c"/><path d="m484.277344 273.941406c-2.253906 11.972656-12.496094 20.773438-24.65625 21.429688-102.933594 5.613281-205.867188 6.9375-308.800782 3.992187-7.972656-3.070312-14.441406-9.433593-17.40625-17.742187-6.792968-19.027344-6.761718-39.832032-1.714843-55.902344 2.757812-8.808594 9.476562-15.601562 17.824219-18.808594 103.300781-3 206.589843-1.683594 309.875 3.941406 12.238281.65625 22.402343 9.582032 24.703124 21.617188 2.445313 12.800781 2.621094 28.578125.175782 41.472656zm0 0" fill="#fbcd58"/><g fill="#ccc"><path d="m384.90625 164.011719c0 5.78125-4.6875 10.46875-10.46875 10.46875s-10.46875-4.6875-10.46875-10.46875 4.6875-10.46875 10.46875-10.46875 10.46875 4.6875 10.46875 10.46875zm0 0"/><path d="m356.820312 130.054688c0 4.515624-3.65625 8.171874-8.171874 8.171874-4.511719 0-8.167969-3.65625-8.167969-8.171874 0-4.511719 3.65625-8.167969 8.167969-8.167969 4.515624 0 8.171874 3.65625 8.171874 8.167969zm0 0"/><path d="m350.691406 159.671875c0 4.511719-3.65625 8.171875-8.167968 8.171875-4.511719 0-8.171876-3.660156-8.171876-8.171875s3.660157-8.171875 8.171876-8.171875c4.511718 0 8.167968 3.660156 8.167968 8.171875zm0 0"/><path d="m176.242188 183.675781c0 4.511719-3.660157 8.167969-8.171876 8.167969-4.511718 0-8.167968-3.65625-8.167968-8.167969s3.65625-8.171875 8.167968-8.171875c4.511719 0 8.171876 3.660156 8.171876 8.171875zm0 0"/><path d="m186.222656 153.835938c0 4.511718-3.65625 8.167968-8.171875 8.167968-4.511719 0-8.167969-3.65625-8.167969-8.167968 0-4.515626 3.65625-8.171876 8.167969-8.171876 4.515625 0 8.171875 3.65625 8.171875 8.171876zm0 0"/><path d="m205.28125 174.277344c0 4.511718-3.660156 8.167968-8.171875 8.167968s-8.167969-3.65625-8.167969-8.167968c0-4.515625 3.65625-8.171875 8.167969-8.171875s8.171875 3.65625 8.171875 8.171875zm0 0"/><path d="m279.777344 80.074219c0 4.511719-3.660156 8.167969-8.171875 8.167969s-8.171875-3.65625-8.171875-8.167969c0-4.515625 3.660156-8.171875 8.171875-8.171875s8.171875 3.65625 8.171875 8.171875zm0 0"/><path d="m300.121094 187.136719c0 4.511719-3.65625 8.171875-8.171875 8.171875-4.511719 0-8.167969-3.660156-8.167969-8.171875s3.65625-8.167969 8.167969-8.167969c4.515625 0 8.171875 3.65625 8.171875 8.167969zm0 0"/></g><path d="m402.453125 465.992188c-15.203125 10.628906-31.609375 19.644531-48.984375 26.800781-65.109375 4.546875-130.214844 4.496093-195.324219-.164063-17.019531-7.042968-33.121093-15.882812-48.066406-26.257812-3.9375-26.574219-1.480469-59.980469 5.882813-70.238282 94-9.59375 188-9.59375 282 0 5.953124 13.257813 7.125 45.347657 4.492187 69.859376zm0 0" fill="#e6e6e6"/><path d="m151.21875 431.03125c0-2.339844 2.191406-4.535156 7.554688-4.535156 6.183593 0 7.625 2.875 10.34375 2.875 3.324218 0 4.679687-4.160156 4.679687-6.199219 0-5.890625-11.023437-6.644531-15.023437-6.644531-9.445313 0-19.332032 4.304687-19.332032 15.632812 0 17.667969 23.9375 16.082032 23.9375 25.222656 0 3.625-3.855468 4.984376-7.324218 4.984376-7.03125 0-9.289063-5.589844-12.839844-5.589844-2.875 0-5.140625 3.78125-5.140625 6.34375 0 4.984375 8.304687 9.820312 18.199219 9.820312 10.953124 0 18.882812-5.894531 18.882812-16.769531 0-19.027344-23.9375-17.597656-23.9375-25.140625zm0 0" fill="#7cbfbf"/><path d="m218.207031 416.976562c-3.019531 0-5.894531 1.054688-5.894531 3.554688v34.28125c0 5.140625-2.714844 7.554688-7.25 7.554688-4.527344 0-7.253906-2.414063-7.253906-7.554688v-34.28125c0-2.5-3.019532-3.554688-5.882813-3.554688-3.019531 0-5.890625 1.054688-5.890625 3.554688v34.28125c0 12.988281 8.304688 17.828125 19.027344 17.828125 10.644531 0 19.035156-4.839844 19.035156-17.828125v-34.28125c0-2.5-3.027344-3.554688-5.890625-3.554688zm0 0" fill="#7cbfbf"/><path d="m270.230469 443.183594h-12.683594c-2.269531 0-3.554687 2.339844-3.554687 4.535156 0 2.339844 1.285156 4.523438 3.554687 4.523438h4.460937v2.570312c0 5.140625-2.570312 7.554688-6.800781 7.554688-4.234375 0-6.71875-2.414063-6.71875-7.554688v-20.007812c0-5.144532 2.484375-7.554688 6.789063-7.554688 6.429687 0 6.648437 4.074219 6.730468 6.800781.074219 2.714844 2.71875 3.542969 5.882813 3.542969 4.003906 0 5.894531-1.054688 5.894531-5.582031 0-9.589844-8.160156-15.035157-18.957031-15.035157-9.894531 0-18.128906 4.839844-18.128906 17.828126v20.007812c0 12.988281 8.089843 17.828125 18.507812 17.828125s18.578125-4.839844 18.578125-17.828125v-7.929688c0-1.964843-1.285156-3.699218-3.554687-3.699218zm0 0" fill="#7cbfbf"/><path d="m325.820312 466.527344-14.128906-46.070313c-.824218-2.644531-4.230468-3.929687-7.699218-3.929687s-6.875 1.285156-7.699219 3.929687l-14.046875 46.070313c-.082032.292968-.15625.59375-.15625.824218 0 2.789063 4.304687 4.835938 7.554687 4.835938 1.882813 0 3.398438-.605469 3.847657-2.191406l2.570312-9.4375h15.933594l2.570312 9.4375c.449219 1.585937 1.964844 2.191406 3.84375 2.191406 3.25 0 7.554688-2.046875 7.554688-4.835938 0-.230468-.070313-.53125-.144532-.824218zm-27.34375-15.039063 5.515626-20.238281 5.515624 20.238281zm0 0" fill="#7cbfbf"/><path d="m373.539062 465.15625-9.203124-16.6875c5.285156-2.035156 9.132812-6.875 9.132812-15.328125 0-12.308594-8.234375-16.164063-18.578125-16.164063h-15.632813c-2.183593 0-3.625 1.660157-3.625 3.554688v48.03125c0 2.414062 2.945313 3.625 5.890626 3.625 2.949218 0 5.894531-1.210938 5.894531-3.625v-18.199219h4.984375l10.34375 20.082031c.824218 1.585938 2.269531 2.195313 3.773437 2.195313 3.480469 0 7.40625-3.179687 7.40625-6.113281 0-.386719-.082031-.910156-.386719-1.371094zm-18.648437-23.855469h-7.472656v-14.050781h7.472656c4.230469 0 6.800781 1.734375 6.800781 7.019531 0 5.289063-2.570312 7.03125-6.800781 7.03125zm0 0" fill="#7cbfbf"/></svg>